<?xml version="1.0" standalone="no"?><!DOCTYPE svg PUBLIC "-//W3C//DTD SVG 1.1//EN" "http://www.w3.org/Graphics/SVG/1.1/DTD/svg11.dtd"><svg t="1600415036489" class="icon" viewBox="0 0 1593 1024" version="1.1" xmlns="http://www.w3.org/2000/svg" p-id="7155" xmlns:xlink="http://www.w3.org/1999/xlink" width="311.1328125" height="200"><defs><style type="text/css"></style></defs><path d="M84.584101 1023.976728a78.996184 78.996184 0 0 1-80.289084-69.170145A578.960579 578.960579 0 0 1 0.157737 869.863059a844.65151 844.65151 0 0 1 230.006894-589.045199A777.291425 777.291425 0 0 1 796.584081 40.597057a733.849988 733.849988 0 0 1 213.716355 28.314508L993.104867 89.210094l-18.876338 22.237878-1.81006 1.93935c-24.435808 28.573088-51.715996 61.024876-75.376065 89.080804h-1.68077A835.730501 835.730501 0 0 0 796.584081 193.934986a648.001434 648.001434 0 0 0-637.141075 672.307953 426.65697 426.65697 0 0 0 4.13728 72.790265 78.608314 78.608314 0 0 1-71.238785 84.943524z m1424.64641 0h-8.403849a80.030504 80.030504 0 0 1-53.526057-29.478118 76.281095 76.281095 0 0 1-17.712728-55.465406 426.65697 426.65697 0 0 0 4.137279-72.790265 706.82838 706.82838 0 0 0-129.936441-408.556371c18.359179-42.407117 44.863627-105.629923 67.101506-165.879059a832.886121 832.886121 0 0 1 222.120204 578.05555 578.960579 578.960579 0 0 1-4.13728 84.943524 77.573995 77.573995 0 0 1-79.642634 68.782275z m-715.49081-12.411839a191.737056 191.737056 0 0 1-89.339383-24.306519 140.92609 140.92609 0 0 1-58.697656-210.354815C701.426648 692.218611 1255.563549 0 1294.479836 0h0.90503a1956.416142 1956.416142 0 0 1-155.147989 437.905199c-90.502994 220.439434-190.702737 446.050469-217.982925 492.594865a146.48556 146.48556 0 0 1-128.514251 81.064825z" fill="#d81e06" p-id="7156"></path></svg>