<?xml version="1.0" standalone="no"?><!DOCTYPE svg PUBLIC "-//W3C//DTD SVG 1.1//EN" "http://www.w3.org/Graphics/SVG/1.1/DTD/svg11.dtd"><svg t="1600427842415" class="icon" viewBox="0 0 1024 1024" version="1.1" xmlns="http://www.w3.org/2000/svg" p-id="2375" xmlns:xlink="http://www.w3.org/1999/xlink" width="200" height="200"><defs><style type="text/css"></style></defs><path d="M899.59893333 808.7456h0.1952a418.57173333 418.57173333 0 0 0-186.62186666-350.03306667 285.9008 285.9008 0 0 0 55.86133333-170.47146666c0-156.5056-124.3232-283.36533333-277.7088-283.36533334-153.30773333 0-277.66933333 126.85866667-277.66933333 283.36533334 0 63.97546667 20.79146667 123.0368 55.86133333 170.47146666A418.57173333 418.57173333 0 0 0 82.89493333 808.74666667h0.1568v132.63253333l-0.07893333 1.6384c0 19.8944 15.76 35.92746667 35.2256 35.92746667a35.57653333 35.57653333 0 0 0 35.1872-35.88906667l-0.07786667-1.6768V797.97866667a346.1312 346.1312 0 0 1 166.60906667-286.79786667 273.0272 273.0272 0 0 0 171.408 60.42666667 273.0272 273.0272 0 0 0 171.408-60.3872 346.0928 346.0928 0 0 1 166.64853333 286.64106666v143.5552c-0.0384 0.50773333-0.11733333 1.05386667-0.11733333 1.6 0 19.8944 15.76 35.92746667 35.2256 35.92746667a35.57653333 35.57653333 0 0 0 35.1872-35.88906667l-0.07786667-1.6768V808.7456zM491.3248 494.25066667c-111.48906667 0-201.87413333-92.21866667-201.87413333-206.0096s90.38506667-206.00853333 201.87413333-206.00853334 201.9136 92.2176 201.9136 206.00853334-90.42453333 205.97013333-201.9136 205.97013333z" p-id="2376"></path></svg>