<?xml version="1.0" standalone="no"?><!DOCTYPE svg PUBLIC "-//W3C//DTD SVG 1.1//EN" "http://www.w3.org/Graphics/SVG/1.1/DTD/svg11.dtd"><svg t="1600414875834" class="icon" viewBox="0 0 1024 1024" version="1.1" xmlns="http://www.w3.org/2000/svg" p-id="6377" xmlns:xlink="http://www.w3.org/1999/xlink" width="200" height="200"><defs><style type="text/css"></style></defs><path d="M918.869333 745.6768H582.997333c-20.548267 0-36.864 17.6128-36.864 39.662933 0 22.050133 16.384 39.594667 36.864 39.594667h335.872c20.548267 0 36.864-17.544533 36.864-39.594667 0-22.050133-16.315733-39.594667-36.864-39.594666zM618.837333 585.796267c0 22.1184 16.384 39.594667 36.932267 39.594666h262.9632c20.616533 0 36.932267-17.544533 36.932267-39.594666 0-21.640533-16.384-39.662933-36.864-39.662934H655.7696c-20.48 0-36.864 17.6128-36.864 39.594667z m299.895467 358.877866H655.837867c-20.616533 0-36.864 17.6128-36.864 39.662934 0 22.050133 16.384 39.662933 36.864 39.662933h262.9632c20.616533 0 36.932267-17.6128 36.932266-39.594667 0-22.1184-16.315733-39.7312-36.864-39.7312z" fill="#FE9400" p-id="6378"></path><path d="M133.5296 956.8256v-57.412267c0-195.584 145.2032-356.488533 329.728-374.715733h0.546133c11.4688-1.092267 22.869333-1.6384 34.4064-1.6384h4.9152c40.96-3.413333 102.673067-13.1072 134.894934-43.2128l15.7696-13.1072A263.236267 263.236267 0 0 0 750.933333 261.5296C750.933333 117.1456 637.3376 0 497.595733 0 357.717333 0 244.736 117.691733 244.736 262.144c0 80.145067 35.498667 155.170133 97.143467 205.141333l15.7696 13.1072-18.500267 7.9872C174.2848 555.485867 68.266667 716.936533 68.266667 899.4816v90.999467c0 18.773333 14.7456 33.518933 32.768 33.518933h476.637866a333.824 333.824 0 0 1-39.389866-67.106133H133.5296v-0.068267z m177.493333-697.070933C310.954667 153.463467 395.605333 66.901333 499.234133 66.901333s188.279467 86.4256 188.279467 192.785067c0 106.359467-84.650667 192.785067-188.279467 192.785067-104.174933-0.136533-188.347733-86.493867-188.347733-192.785067z" fill="#FE9400" p-id="6379"></path></svg>